<svg xmlns="http://www.w3.org/2000/svg" viewBox="0 0 512 512"><rect width="512" height="512" rx="120" fill="#0B5D3B"/><path d="M256 98c-71 0-128 57-128 128v151c0 20 16 36 36 36h184c20 0 36-16 36-36V226c0-71-57-128-128-128Z" fill="#F4E4AA" opacity=".95"/><path d="M256 142c-45 0-82 37-82 82v143h164V224c0-45-37-82-82-82Z" fill="#0B5D3B"/><rect x="213" y="242" width="86" height="86" rx="8" fill="#111"/><rect x="213" y="257" width="86" height="12" fill="#D4B95E"/><path d="M203 365c16-22 34-33 53-33s37 11 53 33" fill="none" stroke="#F4E4AA" stroke-width="14" stroke-linecap="round"/></svg>
